<svg xmlns="http://www.w3.org/2000/svg" width="575.969" height="515.347" viewBox="0 0 575.969 515.347">
  <g id="Group_3535" data-name="Group 3535" transform="translate(-300.174 -62.453)">
    <g id="Group_3499" data-name="Group 3499" transform="translate(704.096 96.341)">
      <g id="Group_3479" data-name="Group 3479" transform="translate(35.499 183.411)">
        <path id="Path_5661" data-name="Path 5661" d="M601.651,260.878c-12.965-7.483-23.474-25.61-23.474-40.485,0-5.517,1.462-9.789,3.945-12.618-7.115.516-11.927,6.471-11.927,16.525,0,14.875,10.509,33,23.474,40.485,8.144,4.7,15.3,4.055,19.5-.747C609.765,264.286,605.843,263.3,601.651,260.878Z" transform="translate(-553.19 -179.432)" fill="#72b5e8"/>
        <path id="Path_5662" data-name="Path 5662" d="M631.41,265.414a46.144,46.144,0,0,0-.4-5.69l9.49-1.2a85.949,85.949,0,0,0-4.3-14.363l-10.811-3.271a75.99,75.99,0,0,0-6.729-11.606l2.591-10.911a86.7,86.7,0,0,0-10.355-10.911l-5.82,7.527a47.085,47.085,0,0,0-4.757-3.207,36.54,36.54,0,0,0-4.757-2.285l-5.82-14.248a28.85,28.85,0,0,0-10.355-1.045l2.591,13.9a14.836,14.836,0,0,0-6.729,3.835l-10.81-9.214a28.207,28.207,0,0,0-4.3,9.4l9.488,12.157a35.821,35.821,0,0,0-.4,5.227,46.183,46.183,0,0,0,.4,5.69l-9.488,1.2a85.692,85.692,0,0,0,4.3,14.364l10.81,3.271a75.962,75.962,0,0,0,6.729,11.6l-2.591,10.911a86.716,86.716,0,0,0,10.355,10.913l5.82-7.529a46.639,46.639,0,0,0,4.757,3.207,36.689,36.689,0,0,0,4.757,2.287l5.82,14.248a28.814,28.814,0,0,0,10.355,1.043l-2.591-13.9a14.852,14.852,0,0,0,6.729-3.835L636.2,292.2a28.284,28.284,0,0,0,4.3-9.4l-9.49-12.155A35.833,35.833,0,0,0,631.41,265.414Zm-30.795,8.813c-12.963-7.485-23.474-25.61-23.474-40.485s10.51-20.869,23.474-13.384,23.474,25.61,23.474,40.487S613.578,281.713,600.615,274.227Z" transform="translate(-560.135 -188.874)" fill="#a8cff0"/>
        <path id="Path_5663" data-name="Path 5663" d="M592.562,205.936l-5.82-14.248-9.092,5.223,5.819,14.248Z" transform="translate(-548.044 -190.537)" fill="#72b5e8"/>
        <path id="Path_5664" data-name="Path 5664" d="M581.092,205.34a36.544,36.544,0,0,1,4.757,2.285,47.092,47.092,0,0,1,4.757,3.207l5.818-7.527,0,0s-.982-.617-1.481-.9a36.421,36.421,0,0,0-4.755-2.285Z" transform="translate(-545.668 -184.718)" fill="#d1ebff"/>
        <path id="Path_5665" data-name="Path 5665" d="M590.97,192.158a28.814,28.814,0,0,0-10.355-1.045l-9.092,5.223a28.851,28.851,0,0,1,10.355,1.045Z" transform="translate(-552.273 -191.007)" fill="#d1ebff"/>
        <path id="Path_5666" data-name="Path 5666" d="M609.61,209.824a86.7,86.7,0,0,0-10.355-10.911l-9.092,5.223a86.7,86.7,0,0,1,10.355,10.911Z" transform="translate(-539.406 -185.549)" fill="#d1ebff"/>
        <path id="Path_5667" data-name="Path 5667" d="M597.348,210.591,594.756,221.5l9.094-5.223,2.59-10.911Z" transform="translate(-536.235 -181.093)" fill="#72b5e8"/>
        <path id="Path_5668" data-name="Path 5668" d="M594.756,217.046a76,76,0,0,1,6.729,11.606l9.092-5.221a76.057,76.057,0,0,0-6.728-11.608Z" transform="translate(-536.235 -176.637)" fill="#72b5e8"/>
        <path id="Path_5669" data-name="Path 5669" d="M598.737,223.912l10.811,3.27,9.094-5.223-10.812-3.27Z" transform="translate(-533.487 -171.897)" fill="#d1ebff"/>
        <path id="Path_5670" data-name="Path 5670" d="M605.133,225.847a85.944,85.944,0,0,1,4.3,14.363l9.094-5.223a86.16,86.16,0,0,0-4.3-14.363Z" transform="translate(-529.072 -170.562)" fill="#72b5e8"/>
        <path id="Path_5671" data-name="Path 5671" d="M580.219,206.713l-.754-4.043-7.693-6.557-9.092,5.223,10.81,9.214A14.855,14.855,0,0,1,580.219,206.713Z" transform="translate(-558.378 -187.482)" fill="#72b5e8"/>
        <path id="Path_5672" data-name="Path 5672" d="M609.433,248.7a28.3,28.3,0,0,1-4.3,9.4l9.094-5.223a28.319,28.319,0,0,0,4.3-9.4Z" transform="translate(-529.072 -154.783)" fill="#72b5e8"/>
        <path id="Path_5673" data-name="Path 5673" d="M611.157,239.1a35.815,35.815,0,0,0,.4-5.227c0-.548-.037-1.105-.066-1.66l-9.43,1.193a46.132,46.132,0,0,1,.4,5.69,35.824,35.824,0,0,1-.4,5.227Z" transform="translate(-531.191 -162.559)" fill="#72b5e8"/>
        <path id="Path_5674" data-name="Path 5674" d="M602.063,241.513l9.488,12.156,9.094-5.223-9.488-12.156Z" transform="translate(-531.19 -159.747)" fill="#d1ebff"/>
        <path id="Path_5675" data-name="Path 5675" d="M601.485,246.681a14.852,14.852,0,0,1-6.729,3.835l2.591,13.9,9.092-5.223-1.837-9.858Z" transform="translate(-536.235 -152.574)" fill="#72b5e8"/>
        <path id="Path_5676" data-name="Path 5676" d="M569.281,215.947l-9.146,5.368,9.488-1.2C569.447,218.711,569.341,217.323,569.281,215.947Z" transform="translate(-560.135 -173.79)" fill="#d1ebff"/>
        <path id="Path_5677" data-name="Path 5677" d="M583.469,244.878l-5.82,7.529,9.16-5.215C585.681,246.47,584.566,245.7,583.469,244.878Z" transform="translate(-548.045 -153.818)" fill="#72b5e8"/>
        <g id="Group_3478" data-name="Group 3478" transform="translate(0.458 5.181)" style="mix-blend-mode: color-dodge;isolation: isolate">
          <path id="Path_5678" data-name="Path 5678" d="M572.926,202.813l-.025-.14c-.433.166-.847.365-1.259.568C572.065,203.089,572.484,202.928,572.926,202.813Z" transform="translate(-552.65 -188.135)" fill="#fff"/>
          <path id="Path_5679" data-name="Path 5679" d="M568.281,218.508l-7.875,1c.03.154.073.306.1.458l7.819-.989C568.31,218.817,568.3,218.665,568.281,218.508Z" transform="translate(-560.406 -177.203)" fill="#fff"/>
          <path id="Path_5680" data-name="Path 5680" d="M599.965,213.526l-2.589,10.909a75.9,75.9,0,0,1,6.727,11.606l10.813,3.271a86.2,86.2,0,0,1,4.2,13.9l1.07-.179a85.467,85.467,0,0,0-4.3-14.361l-10.81-3.271a75.777,75.777,0,0,0-6.731-11.606l2.593-10.909a86.725,86.725,0,0,0-10.355-10.913l-.355,1.2A87.2,87.2,0,0,1,599.965,213.526Z" transform="translate(-539.822 -188.614)" fill="#fff"/>
          <path id="Path_5681" data-name="Path 5681" d="M594.08,263.686c-12.963-7.487-23.474-25.614-23.474-40.489,0-6.57,2.062-11.386,5.472-14.087-3.94,2.537-6.362,7.6-6.362,14.724,0,14.875,10.51,33,23.472,40.487,6.547,3.778,12.461,4.113,16.717,1.613-.314.1-.646.159-.972.23C604.887,267.633,599.719,266.94,594.08,263.686Z" transform="translate(-553.979 -183.691)" fill="#fff"/>
          <path id="Path_5682" data-name="Path 5682" d="M595.789,249.789a14.75,14.75,0,0,0,4.276-2.4l-.4-.341A14.839,14.839,0,0,1,595.789,249.789Z" transform="translate(-535.98 -157.498)" fill="#fff"/>
          <path id="Path_5683" data-name="Path 5683" d="M573.1,208.681c-.394.017,0-.309.4-.63l-10.411-8.873c-.3.407-.561.854-.073.908Z" transform="translate(-558.79 -190.547)" fill="#fff"/>
          <path id="Path_5684" data-name="Path 5684" d="M594.639,249.537l2.48,13.3c-.286-.012.279-.02.828-.073l-2.566-13.759C594.862,249.207,594.338,249.393,594.639,249.537Z" transform="translate(-536.835 -156.148)" fill="#fff" style="mix-blend-mode: color-dodge;isolation: isolate"/>
          <path id="Path_5685" data-name="Path 5685" d="M603.1,238.4a44.9,44.9,0,0,0-.355-5.225l-.943.071a46.52,46.52,0,0,1,.4,5.69,36.061,36.061,0,0,1-.4,5.227l9.488,12.157a29.037,29.037,0,0,1-3.465,8.107l.061.754a28.175,28.175,0,0,0,4.3-9.4L602.7,243.622A35.573,35.573,0,0,0,603.1,238.4Z" transform="translate(-531.828 -167.08)" fill="#fff"/>
          <path id="Path_5686" data-name="Path 5686" d="M581.3,195.644l5.818,14.248a36.554,36.554,0,0,1,4.758,2.284,47.1,47.1,0,0,1,4.755,3.208l.183-.9a45.039,45.039,0,0,0-4.084-2.726,36.658,36.658,0,0,0-4.758-2.284l-5.818-14.248a28.819,28.819,0,0,0-10.355-1.045l.112.6A33.9,33.9,0,0,1,581.3,195.644Z" transform="translate(-552.544 -194.072)" fill="#fff"/>
          <path id="Path_5687" data-name="Path 5687" d="M582.424,245.25l-4.865,6.295c.2.184.4.38.61.563l4.927-6.376C582.873,245.569,582.647,245.417,582.424,245.25Z" transform="translate(-548.565 -158.742)" fill="#fff"/>
        </g>
      </g>
      <g id="Group_3481" data-name="Group 3481" transform="translate(7.691 30.709)">
        <path id="Path_5688" data-name="Path 5688" d="M606.134,205.772c-19.5-11.258-35.309-38.524-35.309-60.9,0-8.3,2.2-14.723,5.936-18.979-10.7.774-17.943,9.733-17.943,24.855,0,22.375,15.81,49.642,35.309,60.9,12.252,7.072,23.007,6.1,29.331-1.126C618.341,210.9,612.44,209.413,606.134,205.772Z" transform="translate(-533.237 -83.256)" fill="#72b5e8"/>
        <path id="Path_5689" data-name="Path 5689" d="M650.9,212.592a69.672,69.672,0,0,0-.6-8.56l14.271-1.805A129.1,129.1,0,0,0,658.1,180.62L641.835,175.7a114.312,114.312,0,0,0-10.122-17.459l3.9-16.411a130.309,130.309,0,0,0-15.575-16.415l-8.754,11.324a70.778,70.778,0,0,0-7.155-4.824,55.026,55.026,0,0,0-7.155-3.436l-8.754-21.433a43.39,43.39,0,0,0-15.576-1.57l3.9,20.911a22.331,22.331,0,0,0-10.122,5.772L550.153,118.3a42.473,42.473,0,0,0-6.469,14.136l14.271,18.286a54.054,54.054,0,0,0-.6,7.863,69.652,69.652,0,0,0,.6,8.558l-14.271,1.805a129.123,129.123,0,0,0,6.469,21.608l16.263,4.919a114.155,114.155,0,0,0,10.122,17.458l-3.9,16.411a130.335,130.335,0,0,0,15.576,16.415l8.754-11.324a70.676,70.676,0,0,0,7.155,4.824,55.03,55.03,0,0,0,7.155,3.438l8.754,21.432a43.349,43.349,0,0,0,15.575,1.57l-3.9-20.911a22.336,22.336,0,0,0,10.122-5.771L658.1,252.878a42.487,42.487,0,0,0,6.469-14.14l-14.271-18.284A54.056,54.056,0,0,0,650.9,212.592Zm-46.322,13.259c-19.5-11.259-35.309-38.526-35.309-60.9s15.81-31.391,35.309-20.132,35.309,38.524,35.309,60.9S624.074,237.111,604.575,225.851Z" transform="translate(-543.684 -97.46)" fill="#a8cff0"/>
        <path id="Path_5690" data-name="Path 5690" d="M592.461,123.124l-8.754-21.432-13.678,7.856,8.754,21.432Z" transform="translate(-525.497 -99.962)" fill="#72b5e8"/>
        <path id="Path_5691" data-name="Path 5691" d="M575.208,122.229a55.02,55.02,0,0,1,7.155,3.436,70.776,70.776,0,0,1,7.155,4.824l8.752-11.322,0,0s-1.479-.928-2.228-1.361a55.011,55.011,0,0,0-7.155-3.436Z" transform="translate(-521.922 -91.209)" fill="#d1ebff"/>
        <path id="Path_5692" data-name="Path 5692" d="M590.068,102.4a43.429,43.429,0,0,0-15.576-1.57l-13.678,7.857a43.391,43.391,0,0,1,15.576,1.57Z" transform="translate(-531.859 -100.669)" fill="#d1ebff"/>
        <path id="Path_5693" data-name="Path 5693" d="M618.106,128.975a130.2,130.2,0,0,0-15.576-16.415l-13.676,7.857a130.2,130.2,0,0,1,15.575,16.415Z" transform="translate(-512.502 -92.46)" fill="#d1ebff"/>
        <path id="Path_5694" data-name="Path 5694" d="M599.659,130.127l-3.9,16.411,13.678-7.857,3.9-16.411Z" transform="translate(-507.733 -85.756)" fill="#72b5e8"/>
        <path id="Path_5695" data-name="Path 5695" d="M595.762,139.837A114.311,114.311,0,0,1,605.884,157.3l13.678-7.857a114.313,114.313,0,0,0-10.123-17.459Z" transform="translate(-507.733 -79.054)" fill="#72b5e8"/>
        <path id="Path_5696" data-name="Path 5696" d="M601.75,150.166l16.263,4.918,13.678-7.856-16.263-4.918Z" transform="translate(-503.599 -71.923)" fill="#d1ebff"/>
        <path id="Path_5697" data-name="Path 5697" d="M611.371,153.075a129.1,129.1,0,0,1,6.469,21.607l13.678-7.857a129.111,129.111,0,0,0-6.469-21.608Z" transform="translate(-496.958 -69.915)" fill="#72b5e8"/>
        <path id="Path_5698" data-name="Path 5698" d="M573.9,124.294l-1.134-6.082-11.574-9.863-13.676,7.857,16.263,13.861A22.33,22.33,0,0,1,573.9,124.294Z" transform="translate(-541.042 -95.367)" fill="#72b5e8"/>
        <path id="Path_5699" data-name="Path 5699" d="M617.84,187.457a42.487,42.487,0,0,1-6.469,14.14l13.678-7.857a42.5,42.5,0,0,0,6.469-14.138Z" transform="translate(-496.958 -46.179)" fill="#72b5e8"/>
        <path id="Path_5700" data-name="Path 5700" d="M620.433,173.015a54.019,54.019,0,0,0,.6-7.862c0-.823-.052-1.662-.1-2.5l-14.182,1.8a69.672,69.672,0,0,1,.6,8.56,54.056,54.056,0,0,1-.6,7.862Z" transform="translate(-500.144 -57.878)" fill="#72b5e8"/>
        <path id="Path_5701" data-name="Path 5701" d="M606.755,176.64l14.272,18.286,13.678-7.856-14.272-18.285Z" transform="translate(-500.144 -53.646)" fill="#d1ebff"/>
        <path id="Path_5702" data-name="Path 5702" d="M605.884,184.414a22.336,22.336,0,0,1-10.122,5.771l3.9,20.911,13.678-7.857-2.764-14.829Z" transform="translate(-507.733 -42.857)" fill="#72b5e8"/>
        <path id="Path_5703" data-name="Path 5703" d="M557.442,138.184l-13.758,8.075,14.271-1.805C557.693,142.342,557.531,140.253,557.442,138.184Z" transform="translate(-543.684 -74.771)" fill="#d1ebff"/>
        <path id="Path_5704" data-name="Path 5704" d="M578.783,181.7l-8.754,11.324,13.78-7.841C582.113,184.1,580.433,182.947,578.783,181.7Z" transform="translate(-525.497 -44.728)" fill="#72b5e8"/>
        <g id="Group_3480" data-name="Group 3480" transform="translate(0.688 7.792)" style="mix-blend-mode: color-dodge;isolation: isolate">
          <path id="Path_5705" data-name="Path 5705" d="M562.926,118.427l-.041-.211c-.651.25-1.276.549-1.895.855C561.627,118.841,562.26,118.6,562.926,118.427Z" transform="translate(-532.424 -96.347)" fill="#fff"/>
          <path id="Path_5706" data-name="Path 5706" d="M555.94,142.037l-11.849,1.5c.046.23.108.461.157.691l11.763-1.489C555.981,142.5,555.967,142.27,555.94,142.037Z" transform="translate(-544.091 -79.902)" fill="#fff"/>
          <path id="Path_5707" data-name="Path 5707" d="M603.6,134.542l-3.9,16.411a114.317,114.317,0,0,1,10.122,17.459l16.263,4.919a129.6,129.6,0,0,1,6.312,20.914l1.609-.265a128.891,128.891,0,0,0-6.467-21.606l-16.263-4.919A114.3,114.3,0,0,0,601.157,150l3.9-16.411a130.443,130.443,0,0,0-15.576-16.415l-.536,1.8A131.134,131.134,0,0,1,603.6,134.542Z" transform="translate(-513.128 -97.069)" fill="#fff"/>
          <path id="Path_5708" data-name="Path 5708" d="M594.746,209.991c-19.5-11.259-35.309-38.524-35.309-60.9,0-9.883,3.1-17.126,8.232-21.188-5.928,3.817-9.572,11.43-9.572,22.147,0,22.377,15.808,49.643,35.308,60.9,9.846,5.685,18.741,6.187,25.145,2.426-.472.145-.97.238-1.46.346C611,215.931,603.228,214.888,594.746,209.991Z" transform="translate(-534.423 -89.662)" fill="#fff"/>
          <path id="Path_5709" data-name="Path 5709" d="M597.315,189.089a22.163,22.163,0,0,0,6.435-3.6l-.6-.512A22.308,22.308,0,0,1,597.315,189.089Z" transform="translate(-507.349 -50.262)" fill="#fff"/>
          <path id="Path_5710" data-name="Path 5710" d="M563.188,127.253c-.592.025,0-.463.6-.947l-15.663-13.349c-.445.615-.845,1.286-.108,1.367Z" transform="translate(-541.66 -99.977)" fill="#fff"/>
          <path id="Path_5711" data-name="Path 5711" d="M595.588,188.711l3.729,20.014c-.431-.022.419-.032,1.244-.11l-3.859-20.7C595.922,188.214,595.133,188.495,595.588,188.711Z" transform="translate(-508.633 -48.231)" fill="#fff" style="mix-blend-mode: color-dodge;isolation: isolate"/>
          <path id="Path_5712" data-name="Path 5712" d="M608.317,171.952a67.2,67.2,0,0,0-.534-7.858l-1.42.108a69.612,69.612,0,0,1,.605,8.558,54,54,0,0,1-.605,7.862l14.273,18.286a43.662,43.662,0,0,1-5.211,12.2l.091,1.134a42.447,42.447,0,0,0,6.467-14.138l-14.271-18.286A53.785,53.785,0,0,0,608.317,171.952Z" transform="translate(-501.103 -64.676)" fill="#fff"/>
          <path id="Path_5713" data-name="Path 5713" d="M575.514,107.643l8.752,21.432a54.922,54.922,0,0,1,7.155,3.438,70.486,70.486,0,0,1,7.153,4.824l.276-1.359a67.008,67.008,0,0,0-6.143-4.1,55.171,55.171,0,0,0-7.157-3.44L576.8,107.01a43.313,43.313,0,0,0-15.575-1.572l.167.9A51.03,51.03,0,0,1,575.514,107.643Z" transform="translate(-532.265 -105.278)" fill="#fff"/>
          <path id="Path_5714" data-name="Path 5714" d="M577.214,182.262l-7.321,9.468c.309.277.609.575.918.847l7.412-9.589C577.888,182.742,577.547,182.514,577.214,182.262Z" transform="translate(-526.279 -52.134)" fill="#fff"/>
        </g>
      </g>
      <path id="Path_5715" data-name="Path 5715" d="M589.9,101.831c.108-2.263,1.661-3.249,3.469-2.2a7.1,7.1,0,0,1,3.08,5.984c-.106,2.262-1.66,3.249-3.467,2.2A7.1,7.1,0,0,1,589.9,101.831Z" transform="translate(-504.092 -70.966)" fill="#eb4680"/>
      <path id="Path_5716" data-name="Path 5716" d="M583.914,261.508c.071-1.5,1.1-2.16,2.307-1.466a4.727,4.727,0,0,1,2.049,3.981c-.073,1.5-1.1,2.162-2.307,1.466A4.725,4.725,0,0,1,583.914,261.508Z" transform="translate(-508.224 39.87)" fill="#eb4680"/>
      <g id="Group_3482" data-name="Group 3482" transform="translate(140.954 183.362)">
        <path id="Path_5717" data-name="Path 5717" d="M623.367,199.617a.845.845,0,0,1-.729-1.271l4.052-6.947a.845.845,0,1,1,1.46.85l-2.961,5.078,5.979-1.841a.846.846,0,0,1,.5,1.616l-8.049,2.478A.855.855,0,0,1,623.367,199.617Z" transform="translate(-622.522 -190.978)" fill="#eb4680"/>
      </g>
      <g id="Group_3484" data-name="Group 3484" transform="translate(59.684 221.408)">
        <path id="Path_5718" data-name="Path 5718" d="M585.678,214.713a19.366,19.366,0,0,1,7.536,9.1,20.246,20.246,0,0,0,2.5-.847c1.56-.632,3.585-.39,5.8.889,4.938,2.852,8.94,9.755,8.94,15.419,0,10.353-17.725,13.94-17.725,13.94s-16.856-22.53-16.856-32.885c0-2.825-1.2-3.7.412-4.62.139-.081,3.345-1.787,3.494-1.849C581.351,213.178,583.417,213.408,585.678,214.713Z" transform="translate(-573.753 -213.486)" fill="#d62d69"/>
        <path id="Path_5719" data-name="Path 5719" d="M583.383,215.667a19.678,19.678,0,0,1,7.918,10.076c1.494-2.409,4.476-2.921,7.917-.935,4.936,2.852,8.939,9.755,8.939,15.418,0,10.355-16.856,13.423-16.856,13.423s-16.858-22.53-16.858-32.885C574.443,215.1,578.446,212.815,583.383,215.667Z" transform="translate(-574.443 -212.828)" fill="#eb4680"/>
        <g id="Group_3483" data-name="Group 3483" transform="translate(3.026 1.488)" style="mix-blend-mode: color-dodge;isolation: isolate">
          <path id="Path_5720" data-name="Path 5720" d="M581.657,215.929a20.4,20.4,0,0,1,8.315,10.09c.3-.49-.113-.308.306-.634a19.5,19.5,0,0,0-7.7-9.532c-2.7-1.558-4.746-1.927-6.349-.94A6.952,6.952,0,0,1,581.657,215.929Z" transform="translate(-576.233 -214.366)" fill="#fff" opacity="0.7"/>
          <path id="Path_5721" data-name="Path 5721" d="M591.745,221.08c-2.693-1.555-4.792-1.587-6.134-.754a6.93,6.93,0,0,1,5.407,1.006c4.936,2.852,8.94,9.755,8.94,15.418,0,4.812-3.641,8.048-7.536,10.134,4.353-2.04,8.262-5.032,8.262-10.385C600.685,230.831,596.683,223.928,591.745,221.08Z" transform="translate(-569.759 -210.627)" fill="#fff" opacity="0.7"/>
        </g>
      </g>
      <g id="Group_3485" data-name="Group 3485" transform="translate(89.441 32.432)">
        <path id="Path_5722" data-name="Path 5722" d="M646.976,260.106l-1.136-1.251c9.1-8.259,13.906-21.722,13.906-38.937,0-42.833-30.37-95.215-67.7-116.766l.845-1.464c37.794,21.82,68.545,74.86,68.545,118.23C661.437,237.621,656.437,251.519,646.976,260.106Z" transform="translate(-592.047 -101.688)" fill="#eb4680"/>
      </g>
      <g id="Group_3489" data-name="Group 3489" transform="translate(108.773 158.619)">
        <g id="Group_3486" data-name="Group 3486" transform="translate(61.571)">
          <path id="Path_5723" data-name="Path 5723" d="M640.755,179.724h-.013a.845.845,0,0,1-.832-.857q.013-.834.012-1.682a.845.845,0,1,1,1.69,0q0,.86-.012,1.707A.845.845,0,0,1,640.755,179.724Z" transform="translate(-639.91 -176.34)" fill="#a8cff0"/>
        </g>
        <g id="Group_3487" data-name="Group 3487" transform="translate(6.685 6.726)">
          <path id="Path_5724" data-name="Path 5724" d="M616.649,235.545a.845.845,0,0,1-.007-1.69c1.1-.008,2.208-.052,3.3-.135a.846.846,0,0,1,.125,1.687c-1.124.085-2.272.13-3.408.139Zm-5.027-.194c-.025,0-.047,0-.073,0q-1.671-.142-3.382-.382a.846.846,0,0,1-.72-.953.862.862,0,0,1,.955-.72q1.663.236,3.289.372a.845.845,0,0,1-.069,1.687Zm13.364-.578a.845.845,0,0,1-.15-1.677c1.083-.2,2.165-.438,3.213-.713a.845.845,0,0,1,.429,1.635c-1.09.287-2.213.536-3.338.742A.93.93,0,0,1,624.986,234.773Zm8.056-2.289a.846.846,0,0,1-.313-1.631c1.018-.4,2.027-.85,3-1.329a.844.844,0,1,1,.745,1.515c-1.012.5-2.066.967-3.122,1.386A.839.839,0,0,1,633.042,232.484Zm7.422-3.857a.845.845,0,0,1-.466-1.55c.914-.605,1.812-1.253,2.666-1.922a.845.845,0,0,1,1.043,1.33c-.889.7-1.824,1.371-2.777,2A.832.832,0,0,1,640.464,228.627Zm6.484-5.3a.846.846,0,0,1-.6-1.444c.771-.772,1.52-1.584,2.229-2.414a.846.846,0,0,1,1.285,1.1c-.737.862-1.516,1.706-2.319,2.508A.843.843,0,0,1,646.949,223.326Zm5.333-6.455a.844.844,0,0,1-.7-1.322c.619-.9,1.212-1.839,1.77-2.782a.845.845,0,1,1,1.455.859c-.575.975-1.19,1.944-1.829,2.879A.849.849,0,0,1,652.282,216.871Zm4.148-7.277a.822.822,0,0,1-.36-.081.845.845,0,0,1-.4-1.126q.695-1.473,1.322-3.029a.846.846,0,1,1,1.569.632q-.647,1.6-1.362,3.119A.844.844,0,0,1,656.43,209.594Zm3.038-7.809a.891.891,0,0,1-.255-.039.847.847,0,0,1-.551-1.062q.489-1.559.92-3.185a.845.845,0,0,1,1.635.431q-.439,1.666-.943,3.262A.844.844,0,0,1,659.467,201.784Zm2.052-8.131a.76.76,0,0,1-.164-.017.845.845,0,0,1-.669-.991c.21-1.073.4-2.162.57-3.272a.846.846,0,0,1,1.672.257q-.261,1.7-.58,3.338A.847.847,0,0,1,661.519,193.654Zm1.2-8.3a.664.664,0,0,1-.083-.005.843.843,0,0,1-.761-.921q.157-1.635.264-3.316a.819.819,0,0,1,.9-.791.846.846,0,0,1,.791.9c-.071,1.141-.162,2.265-.267,3.374A.846.846,0,0,1,662.714,185.354Z" transform="translate(-607.439 -180.319)" fill="#a8cff0"/>
        </g>
        <g id="Group_3488" data-name="Group 3488" transform="translate(0 58.389)">
          <path id="Path_5725" data-name="Path 5725" d="M605.975,212.959a.953.953,0,0,1-.181-.019c-.556-.123-1.111-.254-1.668-.392a.845.845,0,0,1,.406-1.641q.819.205,1.624.382a.845.845,0,0,1-.181,1.67Z" transform="translate(-603.484 -210.883)" fill="#a8cff0"/>
        </g>
      </g>
      <g id="Group_3493" data-name="Group 3493">
        <g id="Group_3490" data-name="Group 3490" transform="translate(1.891 81.939)">
          <path id="Path_5726" data-name="Path 5726" d="M541.387,134.335a.846.846,0,0,1-.83-.695c-.1-.56-.2-1.119-.292-1.677a.845.845,0,1,1,1.667-.279c.093.551.188,1.1.289,1.655a.847.847,0,0,1-.681.982A.94.94,0,0,1,541.387,134.335Z" transform="translate(-540.253 -130.976)" fill="#a8cff0"/>
        </g>
        <g id="Group_3491" data-name="Group 3491">
          <path id="Path_5727" data-name="Path 5727" d="M697.988,184.971a.85.85,0,0,1-.784-.529q-.636-1.58-1.308-3.151a.845.845,0,1,1,1.555-.663q.674,1.587,1.322,3.18a.847.847,0,0,1-.784,1.163ZM694.6,177.1a.847.847,0,0,1-.769-.5q-.707-1.549-1.443-3.092a.845.845,0,1,1,1.525-.73q.743,1.557,1.457,3.12a.846.846,0,0,1-.417,1.121A.862.862,0,0,1,694.6,177.1Zm-3.724-7.715a.848.848,0,0,1-.754-.463q-.771-1.519-1.57-3.029a.845.845,0,1,1,1.493-.791q.806,1.521,1.587,3.054a.847.847,0,0,1-.372,1.138A.865.865,0,0,1,690.873,169.387Zm-4.035-7.552a.845.845,0,0,1-.737-.431q-.837-1.488-1.694-2.963a.844.844,0,1,1,1.459-.85q.867,1.486,1.707,2.985a.844.844,0,0,1-.735,1.259ZM541.1,161.056a.845.845,0,0,1-.837-.735q-.226-1.714-.411-3.418a.846.846,0,0,1,1.682-.183q.183,1.686.406,3.379a.845.845,0,0,1-.729.948A.827.827,0,0,1,541.1,161.056Zm141.393-6.6a.847.847,0,0,1-.72-.4q-.892-1.453-1.81-2.889a.845.845,0,1,1,1.423-.909q.925,1.445,1.827,2.911a.844.844,0,0,1-.72,1.288ZM540.251,152.54a.844.844,0,0,1-.842-.788q-.117-1.727-.186-3.441a.847.847,0,0,1,.813-.877h.032a.844.844,0,0,1,.845.811q.066,1.689.182,3.394a.845.845,0,0,1-.786.9Zm137.608-5.272a.844.844,0,0,1-.7-.372q-.956-1.412-1.93-2.809a.846.846,0,0,1,1.388-.967q.979,1.4,1.942,2.83a.845.845,0,0,1-.7,1.318Zm-137.88-3.278h0a.844.844,0,0,1-.842-.849c.005-1.166.025-2.316.068-3.45a.845.845,0,0,1,.845-.813h.03a.846.846,0,0,1,.815.876c-.042,1.117-.062,2.248-.068,3.394A.846.846,0,0,1,539.979,143.99Zm132.953-3.71a.841.841,0,0,1-.679-.343q-1.014-1.372-2.045-2.723a.845.845,0,1,1,1.344-1.026q1.04,1.362,2.06,2.745a.845.845,0,0,1-.679,1.347Zm-132.579-4.834c-.024,0-.049,0-.074,0a.846.846,0,0,1-.769-.914q.15-1.744.357-3.435a.853.853,0,0,1,.942-.734.844.844,0,0,1,.737.942c-.137,1.105-.252,2.23-.352,3.372A.845.845,0,0,1,540.353,135.446Zm127.356-1.934a.845.845,0,0,1-.657-.314q-1.068-1.326-2.159-2.628a.846.846,0,0,1,1.3-1.085q1.1,1.316,2.177,2.654a.844.844,0,0,1-.659,1.374ZM662.2,126.98a.844.844,0,0,1-.634-.286q-1.126-1.278-2.27-2.527a.844.844,0,1,1,1.244-1.141q1.159,1.26,2.294,2.551a.844.844,0,0,1-.634,1.4Zm-120.723-.012a.775.775,0,0,1-.152-.015.846.846,0,0,1-.681-.982q.317-1.727.7-3.389a.845.845,0,0,1,1.648.377q-.37,1.628-.68,3.316A.846.846,0,0,1,541.477,126.969ZM656.4,120.708a.85.85,0,0,1-.607-.255q-1.192-1.227-2.4-2.422a.846.846,0,0,1,1.19-1.2q1.217,1.207,2.421,2.444a.843.843,0,0,1-.017,1.2A.833.833,0,0,1,656.4,120.708Zm-112.919-2.052a.878.878,0,0,1-.245-.035.844.844,0,0,1-.563-1.055q.512-1.681,1.092-3.289a.844.844,0,1,1,1.587.575q-.565,1.567-1.062,3.207A.845.845,0,0,1,543.476,118.655Zm106.807-3.938a.84.84,0,0,1-.576-.227q-1.247-1.164-2.517-2.294a.846.846,0,0,1,1.127-1.261q1.278,1.141,2.541,2.319a.844.844,0,0,1-.575,1.462Zm-103.791-4.058a.843.843,0,0,1-.767-1.2q.733-1.6,1.545-3.112a.845.845,0,1,1,1.489.8q-.786,1.466-1.5,3.017A.842.842,0,0,1,546.492,110.659Zm97.373-1.6a.844.844,0,0,1-.543-.2q-1.308-1.093-2.637-2.15a.845.845,0,1,1,1.053-1.322q1.341,1.067,2.667,2.175a.844.844,0,0,1-.541,1.493Zm-6.728-5.291a.843.843,0,0,1-.5-.166q-1.374-1.014-2.76-1.986a.845.845,0,1,1,.97-1.384q1.4.984,2.794,2.011a.844.844,0,0,1-.5,1.525Zm-86.482-.566a.835.835,0,0,1-.472-.144.846.846,0,0,1-.23-1.173c.654-.97,1.342-1.919,2.047-2.818a.845.845,0,0,1,1.33,1.043c-.68.867-1.344,1.782-1.974,2.718A.842.842,0,0,1,550.655,103.2ZM630.1,98.9a.837.837,0,0,1-.456-.134q-1.438-.923-2.885-1.8a.844.844,0,1,1,.874-1.445q1.468.887,2.926,1.822A.846.846,0,0,1,630.1,98.9Zm-74.05-2.323a.846.846,0,0,1-.6-1.44c.818-.825,1.673-1.626,2.547-2.38a.845.845,0,1,1,1.1,1.281c-.838.723-1.662,1.493-2.448,2.287A.844.844,0,0,1,556.049,96.581Zm66.694-2.047a.842.842,0,0,1-.406-.1q-1.509-.824-3.007-1.579a.846.846,0,0,1,.762-1.509q1.519.768,3.054,1.6a.845.845,0,0,1-.4,1.587Zm-60.106-3.382a.845.845,0,0,1-.467-1.55c.969-.642,1.974-1.247,2.989-1.8a.845.845,0,0,1,.81,1.484c-.972.531-1.937,1.111-2.865,1.728A.842.842,0,0,1,562.636,91.152Zm52.437-.406a.851.851,0,0,1-.343-.073q-1.572-.695-3.125-1.313a.845.845,0,1,1,.627-1.57q1.58.629,3.183,1.337a.846.846,0,0,1-.341,1.619Zm-7.98-3.083a.835.835,0,0,1-.264-.042q-1.633-.538-3.239-.989A.846.846,0,1,1,604.05,85q1.64.461,3.308,1.011a.845.845,0,0,1-.264,1.648Zm-36.883-.445a.846.846,0,0,1-.309-1.633c1.068-.419,2.176-.8,3.3-1.139a.845.845,0,0,1,.485,1.619c-1.075.323-2.138.691-3.164,1.094A.857.857,0,0,1,570.211,87.219Zm28.628-1.77a.88.88,0,0,1-.172-.019q-1.679-.342-3.325-.59a.846.846,0,0,1,.25-1.673q1.691.256,3.416.609a.845.845,0,0,1-.169,1.673Zm-20.409-.531a.845.845,0,0,1-.145-1.677c1.129-.2,2.289-.36,3.448-.478a.845.845,0,1,1,.171,1.682c-1.117.113-2.236.269-3.325.46A.748.748,0,0,1,578.429,84.918Zm11.932-.619h-.052q-1.7-.109-3.367-.108a.845.845,0,1,1,0-1.69q1.717,0,3.474.11a.845.845,0,0,1-.054,1.689Z" transform="translate(-539.134 -82.501)" fill="#a8cff0"/>
        </g>
        <g id="Group_3492" data-name="Group 3492" transform="translate(159.917 105.665)">
          <path id="Path_5728" data-name="Path 5728" d="M635.173,148.289a.845.845,0,0,1-.795-.554l-.585-1.58a.846.846,0,1,1,1.586-.59l.588,1.591a.847.847,0,0,1-.5,1.084A.885.885,0,0,1,635.173,148.289Z" transform="translate(-633.741 -145.012)" fill="#a8cff0"/>
        </g>
      </g>
      <g id="Group_3497" data-name="Group 3497" transform="translate(81.127 231.785)">
        <g id="Group_3494" data-name="Group 3494" transform="translate(48.075)">
          <path id="Path_5729" data-name="Path 5729" d="M617.059,222.877a.847.847,0,0,1-.784-.529q-.314-.776-.639-1.553a.845.845,0,1,1,1.558-.652c.22.522.436,1.048.649,1.572a.849.849,0,0,1-.467,1.1A.876.876,0,0,1,617.059,222.877Z" transform="translate(-615.57 -219.625)" fill="#eb4680"/>
        </g>
        <g id="Group_3495" data-name="Group 3495" transform="translate(6.014 6.258)">
          <path id="Path_5730" data-name="Path 5730" d="M610.912,299.01h0c-1.128-.005-2.277-.063-3.418-.171a.845.845,0,0,1-.762-.921.878.878,0,0,1,.921-.762c1.09.1,2.191.159,3.266.164a.845.845,0,0,1,0,1.69Zm5-.353a.846.846,0,0,1-.123-1.682,28.857,28.857,0,0,0,3.183-.658.846.846,0,0,1,.436,1.635,31.123,31.123,0,0,1-3.369.695A.794.794,0,0,1,615.914,298.657Zm-13.3-.59a.806.806,0,0,1-.177-.02c-1.08-.232-2.191-.514-3.3-.835a.845.845,0,0,1,.468-1.624c1.075.311,2.147.583,3.19.81a.845.845,0,0,1-.179,1.67Zm21.29-1.807a.845.845,0,0,1-.36-1.609,26.324,26.324,0,0,0,2.838-1.56.844.844,0,1,1,.9,1.425,26.829,26.829,0,0,1-3.022,1.663A.864.864,0,0,1,623.9,296.26Zm-29.285-.641a.829.829,0,0,1-.309-.059c-1.031-.406-2.072-.845-3.125-1.327a.846.846,0,0,1,.7-1.538q1.534.7,3.039,1.291a.845.845,0,0,1-.308,1.633Zm36.18-4.033a.845.845,0,0,1-.575-1.464,28.369,28.369,0,0,0,2.246-2.344.844.844,0,0,1,1.285,1.1,29.372,29.372,0,0,1-2.382,2.487A.836.836,0,0,1,630.8,291.586Zm5.255-6.479a.833.833,0,0,1-.44-.123.846.846,0,0,1-.281-1.163c.556-.909,1.083-1.873,1.567-2.863a.846.846,0,0,1,1.52.742c-.509,1.038-1.062,2.047-1.645,3A.847.847,0,0,1,636.05,285.107Zm3.519-7.571a.827.827,0,0,1-.274-.047.844.844,0,0,1-.524-1.073c.348-1.014.668-2.071.95-3.144a.845.845,0,0,1,1.635.433c-.294,1.111-.625,2.206-.987,3.261A.844.844,0,0,1,639.57,277.536Zm2.011-8.112a.785.785,0,0,1-.14-.012.843.843,0,0,1-.695-.972q.264-1.595.441-3.269a.846.846,0,0,1,1.682.179q-.185,1.722-.456,3.367A.846.846,0,0,1,641.581,269.424Zm.789-8.327h-.029a.846.846,0,0,1-.816-.874c.024-.757.036-1.528.036-2.307l-.007-1a.846.846,0,0,1,.833-.857.891.891,0,0,1,.857.835l.007,1.024c0,.8-.012,1.586-.036,2.365A.847.847,0,0,1,642.371,261.1Zm-.2-8.367a.848.848,0,0,1-.842-.781q-.122-1.646-.309-3.3a.845.845,0,0,1,1.68-.189q.188,1.689.316,3.365a.847.847,0,0,1-.779.908C642.22,252.73,642.2,252.73,642.174,252.73Zm-1.011-8.311a.846.846,0,0,1-.832-.7q-.274-1.63-.6-3.267a.846.846,0,1,1,1.658-.333c.221,1.111.428,2.216.612,3.32a.847.847,0,0,1-.693.974A.833.833,0,0,1,641.164,244.419Zm-1.716-8.193a.846.846,0,0,1-.82-.639q-.4-1.61-.857-3.215a.846.846,0,1,1,1.628-.46q.459,1.633.869,3.262a.845.845,0,0,1-.614,1.026A.87.87,0,0,1,639.448,236.226Zm-2.333-8.043a.842.842,0,0,1-.8-.581q-.52-1.575-1.083-3.146a.845.845,0,1,1,1.591-.571q.571,1.592,1.1,3.19a.845.845,0,0,1-.8,1.109Z" transform="translate(-590.687 -223.327)" fill="#eb4680"/>
        </g>
        <g id="Group_3496" data-name="Group 3496" transform="translate(0 72.436)">
          <path id="Path_5731" data-name="Path 5731" d="M589.45,265a.834.834,0,0,1-.406-.1q-.743-.408-1.491-.838a.845.845,0,1,1,.842-1.465c.489.281.975.556,1.46.822A.846.846,0,0,1,589.45,265Z" transform="translate(-587.129 -262.478)" fill="#eb4680"/>
        </g>
      </g>
      <g id="Group_3498" data-name="Group 3498" transform="translate(127.846 229.67)">
        <path id="Path_5732" data-name="Path 5732" d="M615.613,224.571l-.054,0a.844.844,0,0,1-.789-.9l.281-4.508a.844.844,0,0,1,1.345-.625l3.8,2.818a.844.844,0,1,1-1.006,1.356l-2.554-1.891-.182,2.956A.847.847,0,0,1,615.613,224.571Z" transform="translate(-614.768 -218.374)" fill="#eb4680"/>
      </g>
    </g>
    <path id="Path_5733" data-name="Path 5733" d="M448.011,137.541c-.03-5.549-7.846-10.063-17.456-10.079s-17.38,4.468-17.35,10.015c.027,5.079,6.582,9.278,15.059,9.97l.015,2.813c-1.606.245-2.792,1.082-2.787,2.089l.052,9.6c.007,1.2,1.7,2.179,3.781,2.184l2.853.005c2.081,0,3.764-.969,3.758-2.17l-.052-9.6c-.005-1.007-1.2-1.849-2.811-2.1l-.015-2.813C441.53,146.794,448.038,142.619,448.011,137.541Z" transform="translate(78.029 44.878)" fill="#fff"/>
    <g id="Group_3501" data-name="Group 3501" transform="translate(413.354 62.453)">
      <path id="Path_5734" data-name="Path 5734" d="M690.488,573.49,388.313,398.928c-11.7-6.756-21.181-24.875-21.181-40.473V83.568c0-15.6,9.483-22.767,21.181-16.012L690.488,242.117c11.7,6.755,21.182,24.875,21.182,40.473V557.476C711.669,573.076,702.187,580.245,690.488,573.49Z" transform="translate(-367.131 -60.685)" fill="#d1ebff"/>
      <path id="Path_5735" data-name="Path 5735" d="M695.594,239.558,393.419,65c-4.628-2.672-8.91-3.166-12.4-1.82-.443.172-8.72,4.449-9.136,4.679l-.02.012c3.609-1.753,8.186-1.425,13.176,1.457L687.219,243.887c11.7,6.753,21.182,24.873,21.182,40.472V559.243c0,9.735-3.7,16.187-9.315,18.019a3.516,3.516,0,0,0,1.856-.63c.267-.155,9.05-4.91,9.307-5.09,4.023-2.818,6.528-8.609,6.528-16.626V280.031C716.776,264.433,707.293,246.312,695.594,239.558Z" transform="translate(-363.862 -62.453)" fill="#3f92d1"/>
      <path id="Path_5736" data-name="Path 5736" d="M693.221,240.231,391.047,65.668c-4.628-2.672-8.911-3.166-12.4-1.819-.443.171-6.349,3.31-6.765,3.54l-.02.012c3.609-1.753,8.186-1.425,13.176,1.457L687.219,243.422Z" transform="translate(-363.862 -61.988)" fill="#4f9fdb"/>
      <path id="Path_5737" data-name="Path 5737" d="M687.648,241.809,385.475,67.245c-4.8-2.77-9.209-3.164-12.759-1.629,3.031-.482,6.509.252,10.216,2.392L685.106,242.571c11.7,6.755,21.185,24.873,21.185,40.473V557.929c0,9.2-3.317,15.438-8.426,17.644,6.535-1.036,10.965-7.75,10.965-18.406V282.282C708.83,266.684,699.347,248.562,687.648,241.809Z" transform="translate(-363.276 -60.883)" fill="#fff" style="mix-blend-mode: screen;isolation: isolate"/>
      <path id="Path_5738" data-name="Path 5738" d="M374.169,90.449V340.893c0,12.235,5.823,24.19,15.238,30.174l298.95,172.679c.11.064.281.162.5.284a4.054,4.054,0,0,0,6.062-3.518V275.74Z" transform="translate(-362.272 -43.126)" fill="#03336e"/>
      <path id="Path_5739" data-name="Path 5739" d="M694.487,541.777c-.213-.122-.385-.22-.5-.284L395.041,368.813c-9.415-5.982-15.238-17.938-15.238-30.172V93.7l-5.634-3.254V340.893c0,12.235,5.823,24.19,15.238,30.174l298.95,172.679c.11.064.281.162.5.284a4.044,4.044,0,0,0,5.813-2.181C694.607,541.818,694.544,541.811,694.487,541.777Z" transform="translate(-362.272 -43.126)" fill="#001a46"/>
      <g id="Group_3500" data-name="Group 3500" transform="translate(285.742 180.948)">
        <path id="Path_5740" data-name="Path 5740" d="M553.967,183.96a12.845,12.845,0,0,0,5.83,10.056c3.218,1.859,5.828.37,5.828-3.323a12.848,12.848,0,0,0-5.828-10.056C556.577,178.778,553.967,180.265,553.967,183.96Z" transform="translate(-523.894 -162.368)" fill="#fc0"/>
        <path id="Path_5741" data-name="Path 5741" d="M545.071,178.793a12.848,12.848,0,0,0,5.83,10.056c3.22,1.858,5.83.37,5.83-3.325a12.843,12.843,0,0,0-5.83-10.054C547.681,173.611,545.071,175.1,545.071,178.793Z" transform="translate(-530.036 -165.935)" fill="#eb4680"/>
        <path id="Path_5742" data-name="Path 5742" d="M536.176,173.625a12.843,12.843,0,0,0,5.83,10.056c3.218,1.859,5.828.37,5.828-3.323a12.848,12.848,0,0,0-5.828-10.056C538.786,168.444,536.176,169.932,536.176,173.625Z" transform="translate(-536.176 -169.502)" fill="#0fbab8"/>
      </g>
    </g>
    <path id="Path_5743" data-name="Path 5743" d="M501.405,172.4,479.48,159.738c-2.216-1.278-4.011-.255-4.011,2.287a8.837,8.837,0,0,0,4.011,6.919L501.405,181.6c2.216,1.28,4.011.255,4.011-2.287A8.837,8.837,0,0,0,501.405,172.4Zm36.1,20.842L515.577,180.58c-2.214-1.28-4.011-.255-4.011,2.287a8.841,8.841,0,0,0,4.011,6.919L537.5,202.442c2.214,1.28,4.011.257,4.011-2.285A8.839,8.839,0,0,0,537.5,193.238Zm36.1,20.842L551.676,201.42c-2.216-1.278-4.011-.255-4.011,2.287a8.837,8.837,0,0,0,4.011,6.919L573.6,223.284c2.216,1.28,4.011.255,4.011-2.287A8.834,8.834,0,0,0,573.6,214.08Zm36.1,20.84-21.927-12.659c-2.214-1.28-4.011-.255-4.011,2.287a8.838,8.838,0,0,0,4.011,6.917L609.7,244.124c2.214,1.28,4.01.257,4.01-2.285A8.84,8.84,0,0,0,609.7,234.92Z" transform="translate(121.012 66.779)" fill="#72b5e8"/>
    <g id="Group_3505" data-name="Group 3505" transform="translate(314.207 132.724)">
      <g id="Group_3502" data-name="Group 3502" transform="translate(15.374)">
        <path id="Path_5744" data-name="Path 5744" d="M439.345,180.283v94.361l10.32-6.042V173.974Z" transform="translate(-233.507 -55.737)" fill="#2672ab"/>
        <path id="Path_5745" data-name="Path 5745" d="M523.447,226.033v94.361L317.571,202.331V107.7Z" transform="translate(-317.571 -101.487)" fill="#3f92d1"/>
        <path id="Path_5746" data-name="Path 5746" d="M317.571,110.24,523.447,228.571l10.282-6.31L327.787,104.025Z" transform="translate(-317.571 -104.025)" fill="#72b5e8"/>
        <path id="Path_5747" data-name="Path 5747" d="M317.571,107.7,523.447,226.033l10.282-6.31-10.31,4.873Z" transform="translate(-317.571 -101.487)" fill="#fff" opacity="0.7"/>
      </g>
      <g id="Group_3503" data-name="Group 3503" transform="translate(97.984 69.218)">
        <path id="Path_5748" data-name="Path 5748" d="M448.065,230V226L383.09,189.061v4.006Z" transform="translate(-354.952 -114.539)" fill="#fff"/>
        <path id="Path_5749" data-name="Path 5749" d="M366.443,144.974v4.006l109.218,62.481v-4.007Z" transform="translate(-366.443 -144.974)" fill="#fff"/>
        <path id="Path_5750" data-name="Path 5750" d="M404.9,186.877l-38.455-22.2v4.006l38.455,22.2Z" transform="translate(-366.443 -131.374)" fill="#fff"/>
        <path id="Path_5751" data-name="Path 5751" d="M404.59,196.549v4.005l15.885,8.6v-4.006Z" transform="translate(-340.11 -109.37)" fill="#fff"/>
        <path id="Path_5752" data-name="Path 5752" d="M428.457,190.629l-62.014-35.8v4.006l62.014,35.8Z" transform="translate(-366.443 -138.174)" fill="#fff"/>
        <path id="Path_5753" data-name="Path 5753" d="M389.157,172.864l-22.714-13.115v4.007l22.714,13.114Z" transform="translate(-366.443 -134.774)" fill="#fff"/>
        <path id="Path_5754" data-name="Path 5754" d="M376.465,184.318l43.6,25.17v-4.007l-43.6-25.17Z" transform="translate(-359.525 -120.58)" fill="#fff"/>
        <path id="Path_5755" data-name="Path 5755" d="M382.215,168.855v4.006l61.207,34.761v-4.006Z" transform="translate(-355.556 -128.488)" fill="#fff"/>
        <path id="Path_5756" data-name="Path 5756" d="M391.527,179.157v4.006l30.6,17.669v-4.006Z" transform="translate(-349.127 -121.376)" fill="#fff"/>
        <path id="Path_5757" data-name="Path 5757" d="M379.438,182.028l-12.994-7.5v4.006l12.994,7.5Z" transform="translate(-366.443 -124.574)" fill="#fff"/>
        <path id="Path_5758" data-name="Path 5758" d="M405.465,181.36l43.259,24.4v-4.006l-43.259-24.4Z" transform="translate(-339.506 -122.621)" fill="#fff"/>
        <path id="Path_5759" data-name="Path 5759" d="M420.759,194.774l17.407,10.05v-4.006l-17.407-10.05Z" transform="translate(-328.948 -113.361)" fill="#fff"/>
        <path id="Path_5760" data-name="Path 5760" d="M366.443,153.906l109.218,62.48V212.38L366.443,149.9Z" transform="translate(-366.443 -141.574)" fill="#fff"/>
        <path id="Path_5761" data-name="Path 5761" d="M411.965,194.963l32.271,18.056v-4.006l-32.271-18.056Z" transform="translate(-335.019 -113.231)" fill="#fff"/>
        <path id="Path_5762" data-name="Path 5762" d="M390.636,193.419,366.443,179.45v4.007l24.193,13.968Z" transform="translate(-366.443 -121.174)" fill="#fff"/>
        <path id="Path_5763" data-name="Path 5763" d="M423.862,216.267l12.161,7.02v-4.006l-12.161-7.021Z" transform="translate(-326.805 -98.524)" fill="#fff"/>
        <path id="Path_5764" data-name="Path 5764" d="M416.321,206.988l24.908,14.379v-4.006l-24.908-14.379Z" transform="translate(-332.011 -104.93)" fill="#fff"/>
        <path id="Path_5765" data-name="Path 5765" d="M366.443,173.606l109.218,62.48v-4.006L366.443,169.6Z" transform="translate(-366.443 -127.974)" fill="#fff"/>
      </g>
      <path id="Path_5766" data-name="Path 5766" d="M372.248,144.64l-35.906-20.771c-6.276-3.624-11.366.223-11.366,8.592v41.562c0,8.371,5.09,18.095,11.366,21.719l35.906,20.769c6.278,3.626,11.367-.221,11.367-8.592V166.357C383.615,157.988,378.526,148.264,372.248,144.64Z" transform="translate(-297.086 -91.267)" fill="#2672ab"/>
      <path id="Path_5767" data-name="Path 5767" d="M376.685,213.094l-35.906-20.769c-6.276-3.624-11.366-13.349-11.366-21.719v-41.56a13.616,13.616,0,0,1,1.406-6.487c-3.484.578-5.844,4.172-5.844,9.868v41.56c0,8.371,5.09,18.095,11.366,21.719l35.906,20.769c4.293,2.478,8.027,1.46,9.961-2.106A8.36,8.36,0,0,1,376.685,213.094Z" transform="translate(-297.086 -91.231)" fill="#084c94"/>
      <g id="Group_3504" data-name="Group 3504" transform="translate(0 39.43)">
        <path id="Path_5768" data-name="Path 5768" d="M355.748,151.515l-35.9-20.771c-6.278-3.624-11.367.223-11.367,8.592V180.9c0,8.371,5.09,18.1,11.367,21.719l35.9,20.769c6.278,3.626,11.367-.221,11.367-8.592V173.232C367.115,164.863,362.026,155.139,355.748,151.515Z" transform="translate(-308.476 -125.952)" fill="#0fbab8"/>
        <path id="Path_5769" data-name="Path 5769" d="M360.035,149.48l-35.906-20.771c-2.688-1.552-5.156-1.724-7.1-.767l-.061-.068-6.214,3.648.024.076c2-1.192,4.62-1.114,7.495.546l35.9,20.771c6.278,3.624,11.367,13.347,11.367,21.717v41.562c0,4.067-1.209,7.055-3.164,8.648l3.463-2.28c2.911-1.67,5.558-4.265,5.558-9.8V171.2C371.4,162.829,366.311,153.1,360.035,149.48Z" transform="translate(-306.904 -127.352)" fill="#0ba19f"/>
        <path id="Path_5770" data-name="Path 5770" d="M354.749,151.2,318.843,130.43c-3.119-1.8-5.942-1.755-7.994-.23,1.863-.707,4.141-.451,6.611.974l35.906,20.771c6.278,3.624,11.367,13.347,11.367,21.717v41.562c0,4.212-1.291,7.275-3.372,8.82,2.875-1.09,4.755-4.488,4.755-9.566v-41.56C366.116,164.547,361.026,154.824,354.749,151.2Z" transform="translate(-306.838 -126.168)" fill="#fff" opacity="0.7"/>
        <path id="Path_5771" data-name="Path 5771" d="M314.111,136.972V184.55l38.938,22.49V159.464Zm36.444,65.745-33.947-19.61V141.3L350.555,160.9Z" transform="translate(-304.586 -120.711)" fill="#fff"/>
        <path id="Path_5772" data-name="Path 5772" d="M336.1,159.023c0,3.117-2.2,4.373-4.919,2.8a10.84,10.84,0,0,1-4.919-8.485c0-3.115,2.2-4.371,4.919-2.8A10.837,10.837,0,0,1,336.1,159.023Z" transform="translate(-296.194 -111.812)" fill="#fff"/>
        <path id="Path_5773" data-name="Path 5773" d="M314.883,162.992l10.138-13.1,10.295,26.048,7.488-6.083,8.267,22.46-.157,2.274L315.039,175.4Z" transform="translate(-304.053 -111.794)" fill="#fff"/>
      </g>
    </g>
    <g id="Group_3508" data-name="Group 3508" transform="translate(751.506 186.251)">
      <g id="Group_3506" data-name="Group 3506">
        <path id="Path_5774" data-name="Path 5774" d="M613.776,174.581c0,6.466-2.231,11.045-5.857,13.261-.11.066-6.2,3.842-6.31,3.906-3.773,2.108-1.359-2.679-7.089-5.987-11.535-6.66-20.886-22.787-20.886-36.023,0-6.545-6.05-6.6-2.343-8.783.1-.061,6.917-3.95,7.022-4.008,3.764-2.037,8.908-1.663,14.579,1.613C604.425,145.219,613.776,161.346,613.776,174.581Z" transform="translate(-565.175 -135.692)" fill="#fc0"/>
        <path id="Path_5775" data-name="Path 5775" d="M585.964,140.672c-5.529-3.193-10.551-3.624-14.287-1.756,3.48-.974,7.8-.247,12.483,2.458,11.535,6.658,20.884,22.786,20.884,36.021,0,6.89-2.537,11.631-6.6,13.661,5.1-1.427,8.4-6.5,8.4-14.363C606.848,163.458,597.5,147.33,585.964,140.672Z" transform="translate(-564.079 -134.232)" fill="#fff"/>
        <path id="Path_5776" data-name="Path 5776" d="M608.95,176.99c0,13.235-9.351,18.567-20.886,11.907s-20.882-22.786-20.882-36.021,9.349-18.567,20.882-11.907S608.95,163.755,608.95,176.99Z" transform="translate(-567.182 -134.029)" fill="#ffd70f"/>
      </g>
      <path id="Path_5777" data-name="Path 5777" d="M579.723,151.129c0,1.861-1.313,2.608-2.933,1.673a6.467,6.467,0,0,1-2.936-5.061c0-1.861,1.315-2.61,2.936-1.673A6.466,6.466,0,0,1,579.723,151.129Z" transform="translate(-562.576 -128.808)" fill="#d99f00"/>
      <path id="Path_5778" data-name="Path 5778" d="M586.747,155.183c0,1.859-1.315,2.61-2.936,1.673a6.466,6.466,0,0,1-2.934-5.063c0-1.859,1.313-2.608,2.934-1.672A6.465,6.465,0,0,1,586.747,155.183Z" transform="translate(-557.729 -126.009)" fill="#d99f00"/>
      <path id="Path_5779" data-name="Path 5779" d="M572.541,153.428l2.737.463c1.261,4.8,4.638,9.479,8.4,11.653,3.653,2.11,6.995,1.413,8.317-1.731l2.71,2.77c-1.753,4.168-6.183,5.09-11.026,2.294C578.69,166,574.213,159.787,572.541,153.428Z" transform="translate(-563.483 -123.448)" fill="#d99f00"/>
      <path id="Path_5780" data-name="Path 5780" d="M577.647,152.184a6.464,6.464,0,0,1-2.936-5.061,2.469,2.469,0,0,1,.4-1.432c-.755.174-1.252.891-1.252,2.032a6.467,6.467,0,0,0,2.936,5.061c1.092.63,2.033.482,2.539-.243A2.337,2.337,0,0,1,577.647,152.184Z" transform="translate(-562.576 -128.789)" fill="#b08100"/>
      <path id="Path_5781" data-name="Path 5781" d="M584.667,156.237a6.468,6.468,0,0,1-2.934-5.063,2.456,2.456,0,0,1,.4-1.428c-.756.172-1.253.889-1.253,2.028a6.469,6.469,0,0,0,2.934,5.063c1.094.63,2.033.482,2.539-.243A2.347,2.347,0,0,1,584.667,156.237Z" transform="translate(-557.729 -125.99)" fill="#b08100"/>
      <g id="Group_3507" data-name="Group 3507" transform="translate(9.058 29.981)">
        <path id="Path_5782" data-name="Path 5782" d="M584.9,159.917l-.336-.345a5.012,5.012,0,0,1-1.253,1.8A4.4,4.4,0,0,0,584.9,159.917Z" transform="translate(-565.107 -149.188)" fill="#b08100"/>
        <path id="Path_5783" data-name="Path 5783" d="M584.539,168.277c-4.785-2.762-9.092-8.585-10.913-14.665l-1.085-.183c1.672,6.357,6.149,12.568,11.139,15.448,3.646,2.106,7.057,2.1,9.268.193C590.761,170.341,587.742,170.128,584.539,168.277Z" transform="translate(-572.541 -153.429)" fill="#b08100"/>
      </g>
    </g>
    <g id="Group_3516" data-name="Group 3516" transform="translate(564.569 297.03)">
      <g id="Group_3509" data-name="Group 3509">
        <path id="Path_5784" data-name="Path 5784" d="M589.863,284.079V399.317l10.32-6.042V277.77Z" transform="translate(-364.587 -148.39)" fill="#2672ab"/>
        <path id="Path_5785" data-name="Path 5785" d="M681.9,334.379V449.617L456.59,320.411V204.905Z" transform="translate(-456.59 -198.69)" fill="#3f92d1"/>
        <path id="Path_5786" data-name="Path 5786" d="M456.59,207.444,681.9,336.917l10.282-6.309L466.8,201.228Z" transform="translate(-456.59 -201.228)" fill="#72b5e8"/>
        <path id="Path_5787" data-name="Path 5787" d="M456.59,204.905,681.9,334.379l10.282-6.309-10.311,4.873Z" transform="translate(-456.59 -198.69)" fill="#fff" opacity="0.7"/>
      </g>
      <path id="Path_5788" data-name="Path 5788" d="M610.672,338.243c0,22.407-15.83,31.433-35.357,20.159s-35.357-38.577-35.357-60.984,15.828-31.433,35.357-20.161S610.672,315.838,610.672,338.243Z" transform="translate(-399.037 -152.095)" fill="#2672ab"/>
      <path id="Path_5789" data-name="Path 5789" d="M578.7,354.248c-19.528-11.275-35.357-38.577-35.357-60.984,0-8.36,2.206-14.855,5.982-19.129-5.811,3.874-9.363,11.477-9.363,22.088,0,22.407,15.828,49.709,35.357,60.984,12.24,7.069,23.027,6.156,29.375-1.028C598.23,360.487,588.977,360.185,578.7,354.248Z" transform="translate(-399.037 -150.899)" fill="#084c94"/>
      <g id="Group_3511" data-name="Group 3511" transform="translate(13.084 60.812)">
        <path id="Path_5790" data-name="Path 5790" d="M528.289,245.892l-7.6-4.39v85.673l7.6,4.388Zm10.947-4.3-7.6-4.39v96.2l7.6,4.39Zm11.271,19.353-7.6-4.39V339.84l7.6,4.39Zm-52.361,6.033v46.937l7.6,4.39V271.37Zm18.873-13.044-7.6-4.39v70.811l7.6,4.39Zm44.545,30.8-7.6-4.388V346.28l7.6,4.39Zm10.843,27.189-7.6-4.39v45.081l7.6,4.39Zm-77.933-53.075-7.6-4.39V307.12l7.6,4.39Zm-30.144,3.11v31.908l7.6,4.388v-31.91ZM483.2,249.44l-7.6-4.388v55.254l7.6,4.39Z" transform="translate(-464.33 -237.205)" fill="#2672ab"/>
        <path id="Path_5791" data-name="Path 5791" d="M528.289,273.693l-7.6-4.388v52.044l7.6,4.388Zm10.947-23.661-7.6-4.388v81.93l7.6,4.39Zm11.271,20.3-7.6-4.39v68.075l7.6,4.39Zm-52.361,2.229v35.533l7.6,4.39V276.949Zm18.873-1.393-7.6-4.388v47.754l7.6,4.39Zm-22.544-13.837-7.6-4.39v48.355l7.6,4.39ZM464.33,278.8v9.241l7.6,4.388v-9.241Zm18.873.019-7.6-4.39v20.052l7.6,4.39Zm78.36,12.361-7.6-4.39v53.666l7.6,4.39Zm10.843,21.6-7.6-4.388v38.392l7.6,4.39Z" transform="translate(-464.33 -231.379)" fill="#a8cff0"/>
        <g id="Group_3510" data-name="Group 3510" transform="translate(0 14.264)">
          <path id="Path_5792" data-name="Path 5792" d="M518.417,262.99l-7.6-4.389v-.949l7.6,4.389Z" transform="translate(-432.24 -237.354)" fill="#fff"/>
          <path id="Path_5793" data-name="Path 5793" d="M511.749,250.982l-7.6-4.389v-.949l7.6,4.389Z" transform="translate(-436.843 -245.644)" fill="#fff"/>
          <path id="Path_5794" data-name="Path 5794" d="M531.373,288.105l-7.6-4.389v-.949l7.6,4.389Z" transform="translate(-423.297 -220.016)" fill="#fff"/>
          <path id="Path_5795" data-name="Path 5795" d="M505.273,264.98l-7.6-4.389v-.949l7.6,4.389Z" transform="translate(-441.315 -235.98)" fill="#fff"/>
          <path id="Path_5796" data-name="Path 5796" d="M524.958,275.325l-7.6-4.389v-.951l7.6,4.389Z" transform="translate(-427.724 -228.84)" fill="#fff"/>
          <path id="Path_5797" data-name="Path 5797" d="M478.6,268.012l-7.6-4.389v-.951l7.6,4.389Z" transform="translate(-459.727 -233.888)" fill="#fff"/>
          <path id="Path_5798" data-name="Path 5798" d="M485.268,255.3l-7.6-4.389v-.949l7.6,4.389Z" transform="translate(-455.125 -242.664)" fill="#fff"/>
          <path id="Path_5799" data-name="Path 5799" d="M471.932,269.647v.949l-7.6-4.389v-.949Z" transform="translate(-464.33 -232.103)" fill="#fff"/>
          <path id="Path_5800" data-name="Path 5800" d="M498.6,263.485,491,259.1v-.949l7.6,4.389Z" transform="translate(-445.917 -237.012)" fill="#fff"/>
          <path id="Path_5801" data-name="Path 5801" d="M491.936,266.906l-7.6-4.389v-.949l7.6,4.389Z" transform="translate(-450.52 -234.651)" fill="#fff"/>
        </g>
      </g>
      <g id="Group_3515" data-name="Group 3515" transform="translate(132.254 123.237)">
        <g id="Group_3512" data-name="Group 3512" transform="translate(0.316)">
          <path id="Path_5802" data-name="Path 5802" d="M543.094,301.653c.463-16.935,12.772-23.67,27.877-14.949,7.775,4.489,14.811,12.224,19.878,21.053l5.571-1.4c-6.347-11.513-15.406-21.668-25.45-27.468-19.006-10.974-34.488-2.3-34.721,19.315l4.457,4.048Z" transform="translate(-534.168 -274.135)" fill="#fc0"/>
          <path id="Path_5803" data-name="Path 5803" d="M585.819,342.717c-4.121.375-8.895-.773-14-3.722-14.307-8.257-26.117-27.493-27.72-44.349l-6.819-3.436c.01.123-2.277.588-2.265.712,1.971,20.98,18.993,44.608,36.8,54.89,6.467,3.736,10.845,5.7,16.036,5.145.218-.022,2.115-.561,2.329-.592Z" transform="translate(-535.018 -262.349)" fill="#fc0"/>
          <path id="Path_5804" data-name="Path 5804" d="M572.205,297.626c3.382,7.252,5.406,14.929,5.406,21.986,0,10.122-4.124,16.766-10.534,18.944l4.317,8.545c7.934-2.728,13.027-11,13.027-23.556,0-8.764-2.485-18.3-6.677-27.312Z" transform="translate(-512.887 -258.882)" fill="#fc0"/>
        </g>
        <path id="Path_5805" data-name="Path 5805" d="M572.3,318.264a23.742,23.742,0,0,1-4.9-5.86c-.808-1.356-.781-2.826.007-3.284a6.253,6.253,0,0,0,2.5-2.787c.859.235,1.922-.079,1.922-1.256a4.658,4.658,0,0,0-1.239-3.169c-.21-5.137-1.964-10.416-7.874-13.827-2.066-1.193-3.624-1.572-4.785-1.351-.271.051-2.613.669-2.843.783-1.6.8-.127,2.517-.245,5.3-.708-.159-1.241.536-1.241,1.736a5.69,5.69,0,0,0,1.924,3.477,27.881,27.881,0,0,0,2.5,5.673c.786,1.369.815,2.87.005,3.291a6.449,6.449,0,0,1-4.9.208,3.7,3.7,0,0,0-2.047-.081c-.172.047-2.277.593-2.431.671-1.1.548.152,1.349.152,3.212v5.3a3.572,3.572,0,0,0,1.619,2.8l22.7,15.025c.392.227,2.623-.566,2.9-.671a1.061,1.061,0,0,0,.585-1.094v-5.3A12.612,12.612,0,0,0,572.3,318.264Z" transform="translate(-525.596 -265.483)" fill="#fc0"/>
        <g id="Group_3513" data-name="Group 3513" transform="translate(0.872 0.436)">
          <path id="Path_5806" data-name="Path 5806" d="M542.189,301.913c.465-16.937,12.776-23.671,27.879-14.951,7.774,4.488,14.811,12.223,19.877,21.055l5.573-1.4c-6.347-11.513-15.406-21.668-25.45-27.468-19.006-10.974-34.49-2.3-34.721,19.315Z" transform="translate(-535.347 -274.393)" fill="#fff"/>
          <path id="Path_5807" data-name="Path 5807" d="M583.991,342.975c-4.121.375-8.895-.774-14-3.72C555.688,331,543.875,311.761,542.272,294.9l-6.817-3.436c1.832,21.07,16.621,45.257,34.539,55.6,6.739,3.893,13.034,5.3,18.365,4.555Z" transform="translate(-535.272 -262.607)" fill="#fff"/>
          <path id="Path_5808" data-name="Path 5808" d="M571.3,297.883c3.381,7.25,5.4,14.929,5.4,21.984,0,10.123-4.124,16.768-10.532,18.944l4.315,8.546c7.934-2.728,13.027-11,13.027-23.556,0-8.764-2.483-18.3-6.678-27.312Z" transform="translate(-514.065 -259.14)" fill="#fff"/>
        </g>
        <path id="Path_5809" data-name="Path 5809" d="M571.151,318.524a23.794,23.794,0,0,1-4.9-5.864c-.808-1.354-.781-2.825.007-3.283a6.25,6.25,0,0,0,2.5-2.787c.859.235,1.924-.079,1.924-1.258a4.646,4.646,0,0,0-1.239-3.168c-.21-5.139-1.964-10.416-7.874-13.827s-7.666-.159-7.875,4.736c-.708-.159-1.237.536-1.237,1.736a5.678,5.678,0,0,0,1.922,3.475,27.937,27.937,0,0,0,2.5,5.674c.788,1.369.818,2.87.007,3.291a6.448,6.448,0,0,1-4.9.208c-2.481-.749-4.326.749-4.326,3.8v5.3a3.568,3.568,0,0,0,1.621,2.792l24.571,14.187c.894.517,1.619.1,1.619-.925v-5.3A12.614,12.614,0,0,0,571.151,318.524Z" transform="translate(-525.972 -265.304)" fill="#fff"/>
        <g id="Group_3514" data-name="Group 3514" transform="translate(0 0.655)">
          <path id="Path_5810" data-name="Path 5810" d="M541.675,302.042c.463-16.937,12.772-23.67,27.877-14.951,7.776,4.488,14.811,12.224,19.878,21.055l5.571-1.4c-6.347-11.515-15.406-21.668-25.45-27.468-19.006-10.972-34.488-2.3-34.721,19.315Z" transform="translate(-534.831 -274.523)" fill="#ffde17"/>
          <path id="Path_5811" data-name="Path 5811" d="M583.475,343.1c-4.121.377-8.893-.772-14-3.719-14.307-8.261-26.117-27.493-27.72-44.351l-6.819-3.436c1.831,21.068,16.621,45.257,34.539,55.6,6.739,3.891,13.034,5.3,18.365,4.554Z" transform="translate(-534.756 -262.737)" fill="#ffde17"/>
          <path id="Path_5812" data-name="Path 5812" d="M570.786,298.011c3.382,7.252,5.406,14.929,5.406,21.986,0,10.125-4.124,16.768-10.534,18.944l4.317,8.548c7.934-2.73,13.027-11,13.027-23.56,0-8.763-2.485-18.3-6.677-27.311Z" transform="translate(-513.55 -259.27)" fill="#ffde17"/>
        </g>
        <path id="Path_5813" data-name="Path 5813" d="M570.635,318.653a23.786,23.786,0,0,1-4.9-5.864c-.808-1.356-.779-2.825.007-3.283a6.264,6.264,0,0,0,2.5-2.787c.859.235,1.924-.079,1.924-1.258a4.655,4.655,0,0,0-1.241-3.168c-.21-5.137-1.964-10.416-7.874-13.827s-7.664-.159-7.874,4.735c-.71-.155-1.241.538-1.241,1.738a5.681,5.681,0,0,0,1.924,3.475,27.85,27.85,0,0,0,2.5,5.674c.786,1.367.815,2.87.005,3.291a6.457,6.457,0,0,1-4.9.21c-2.481-.751-4.326.747-4.326,3.8v5.3a3.567,3.567,0,0,0,1.619,2.792l24.572,14.187c.894.517,1.621.1,1.621-.923v-5.3A12.61,12.61,0,0,0,570.635,318.653Z" transform="translate(-526.328 -265.215)" fill="#ffde17"/>
      </g>
    </g>
    <g id="Group_3519" data-name="Group 3519" transform="translate(387.285 295.78)">
      <g id="Group_3517" data-name="Group 3517">
        <path id="Path_5814" data-name="Path 5814" d="M457.329,266.3v48.255l8.093-4.447V261.583Z" transform="translate(-278.796 -158.314)" fill="#0ba19f"/>
        <path id="Path_5815" data-name="Path 5815" d="M530.28,306.587v48.255l-178.571-103.1V203.223Z" transform="translate(-351.709 -198.602)" fill="#0fbab8"/>
        <path id="Path_5816" data-name="Path 5816" d="M351.709,205.11,530.28,308.474l8.055-4.716L359.7,200.489Z" transform="translate(-351.709 -200.489)" fill="#3ecfcd"/>
        <path id="Path_5817" data-name="Path 5817" d="M351.709,203.223,530.28,306.587l8.055-4.716-7.889,3.448Z" transform="translate(-351.709 -198.602)" fill="#fff" opacity="0.7"/>
      </g>
      <path id="Path_5818" data-name="Path 5818" d="M517.6,334.186,356.922,240.409V211.976L517.6,305.754Z" transform="translate(-348.11 -192.56)" fill="#fff"/>
      <g id="Group_3518" data-name="Group 3518" transform="translate(15.544 27.45)">
        <path id="Path_5819" data-name="Path 5819" d="M360.9,216.729l3.251,1.878,1.5,15.521.061.035,1.594-13.732,3.678,2.123,1.594,15.575.063.034,1.5-13.785,2.914,1.68-2.177,19.1-4.2-2.426-1.533-13.215-.061-.034-1.533,11.445-4.476-2.585Z" transform="translate(-360.905 -216.729)" fill="#084c94"/>
        <path id="Path_5820" data-name="Path 5820" d="M372.285,223.345l3.251,1.876,1.5,15.521.061.035,1.594-13.732,3.678,2.123,1.594,15.575.061.034,1.5-13.785,2.912,1.68-2.175,19.1-4.2-2.424-1.531-13.217-.061-.034-1.533,11.445-4.478-2.585Z" transform="translate(-353.049 -212.162)" fill="#084c94"/>
        <path id="Path_5821" data-name="Path 5821" d="M383.756,229.869l3.25,1.876,1.5,15.521.061.036,1.6-13.732,3.68,2.125,1.592,15.571.061.037,1.5-13.786,2.912,1.682-2.177,19.1-4.2-2.426L392,242.653l-.061-.037-1.535,11.447-4.474-2.586Z" transform="translate(-345.13 -207.658)" fill="#084c94"/>
      </g>
    </g>
    <g id="Group_3522" data-name="Group 3522" transform="translate(438.441 110.948)">
      <g id="Group_3520" data-name="Group 3520" transform="translate(0 23.939)">
        <path id="Path_5822" data-name="Path 5822" d="M399.672,118.7V152.35l5.076-2.8V115.644Z" transform="translate(-369.754 -98.168)" fill="#fc0"/>
        <path id="Path_5823" data-name="Path 5823" d="M411.928,124.626v33.651l-29.955-17.306V107.059Z" transform="translate(-381.973 -104.095)" fill="#ffd70f"/>
        <path id="Path_5824" data-name="Path 5824" d="M381.973,108.269l29.955,17.568,5.038-3.056-30.021-17.475Z" transform="translate(-381.973 -105.305)" fill="#ffde17"/>
        <path id="Path_5825" data-name="Path 5825" d="M381.973,107.059l29.955,17.568,5.038-3.056-5.292,1.435Z" transform="translate(-381.973 -104.095)" fill="#fff"/>
      </g>
      <g id="Group_3521" data-name="Group 3521" transform="translate(7.811)">
        <path id="Path_5826" data-name="Path 5826" d="M415.255,112.833v54.491l8.219-4.527V107.883Z" transform="translate(-366.808 -79.586)" fill="#d62d69"/>
        <path id="Path_5827" data-name="Path 5827" d="M386.594,95.943,435.1,124.39l8.158-4.95-48.614-28.3Z" transform="translate(-386.594 -91.143)" fill="#f76195"/>
        <path id="Path_5828" data-name="Path 5828" d="M386.594,93.982,435.1,122.429l8.158-4.95-7.938,3.78Z" transform="translate(-386.594 -89.182)" fill="#fff" opacity="0.7"/>
      </g>
      <path id="Path_5829" data-name="Path 5829" d="M386.594,93.982v22.6l25.672,15.055v32.089L435.1,176.92V122.429Z" transform="translate(-378.783 -89.182)" fill="#eb4680"/>
    </g>
    <g id="Group_3528" data-name="Group 3528" transform="translate(564.934 252.82)">
      <g id="Group_3523" data-name="Group 3523">
        <path id="Path_5830" data-name="Path 5830" d="M476.594,190.05V227.67l5.673-3.127V186.632Z" transform="translate(-443.145 -167.096)" fill="#0ba19f"/>
        <path id="Path_5831" data-name="Path 5831" d="M490.3,196.675V234.3l-33.49-19.349V177.035Z" transform="translate(-456.806 -173.721)" fill="#0fbab8"/>
        <path id="Path_5832" data-name="Path 5832" d="M456.806,178.388l33.49,19.64,5.632-3.418-33.562-19.536Z" transform="translate(-456.806 -175.074)" fill="#3ecfcd"/>
        <path id="Path_5833" data-name="Path 5833" d="M456.806,177.035l33.49,19.64,5.632-3.418-5.916,1.605Z" transform="translate(-456.806 -173.721)" fill="#fff" opacity="0.7"/>
      </g>
      <g id="Group_3524" data-name="Group 3524" transform="translate(43.949 25.355)">
        <path id="Path_5834" data-name="Path 5834" d="M502.594,205.049V242.67l5.673-3.127V201.632Z" transform="translate(-469.145 -182.096)" fill="#0ba19f"/>
        <path id="Path_5835" data-name="Path 5835" d="M516.3,211.674V249.3l-33.49-19.348V192.035Z" transform="translate(-482.806 -188.721)" fill="#0fbab8"/>
        <path id="Path_5836" data-name="Path 5836" d="M482.806,193.388l33.49,19.639,5.632-3.417-33.562-19.536Z" transform="translate(-482.806 -190.074)" fill="#3ecfcd"/>
        <path id="Path_5837" data-name="Path 5837" d="M482.806,192.035l33.49,19.639,5.632-3.417-5.916,1.6Z" transform="translate(-482.806 -188.721)" fill="#fff" opacity="0.7"/>
      </g>
      <g id="Group_3525" data-name="Group 3525" transform="translate(87.616 50.428)">
        <path id="Path_5838" data-name="Path 5838" d="M528.427,219.883V257.5l5.675-3.125V216.466Z" transform="translate(-494.98 -196.928)" fill="#0ba19f"/>
        <path id="Path_5839" data-name="Path 5839" d="M542.128,226.508v37.62L508.64,244.78V206.868Z" transform="translate(-508.64 -203.553)" fill="#0fbab8"/>
        <path id="Path_5840" data-name="Path 5840" d="M508.64,208.222l33.488,19.64,5.634-3.417L514.2,204.907Z" transform="translate(-508.64 -204.907)" fill="#3ecfcd"/>
        <path id="Path_5841" data-name="Path 5841" d="M508.64,206.868l33.488,19.64,5.634-3.417-5.916,1.6Z" transform="translate(-508.64 -203.553)" fill="#fff" opacity="0.7"/>
      </g>
      <g id="Group_3526" data-name="Group 3526" transform="translate(130.72 74.937)">
        <path id="Path_5842" data-name="Path 5842" d="M553.927,234.383V272l5.675-3.125V230.966Z" transform="translate(-520.48 -211.428)" fill="#0ba19f"/>
        <path id="Path_5843" data-name="Path 5843" d="M567.628,241.008v37.62L534.14,259.28V221.368Z" transform="translate(-534.14 -218.053)" fill="#0fbab8"/>
        <path id="Path_5844" data-name="Path 5844" d="M534.14,222.722l33.488,19.64,5.634-3.417L539.7,219.407Z" transform="translate(-534.14 -219.407)" fill="#3ecfcd"/>
        <path id="Path_5845" data-name="Path 5845" d="M534.14,221.368l33.488,19.64,5.634-3.417-5.916,1.6Z" transform="translate(-534.14 -218.053)" fill="#fff" opacity="0.7"/>
      </g>
      <path id="Path_5846" data-name="Path 5846" d="M528.564,236.078a15.116,15.116,0,0,1-3.1-3.709c-.512-.859-.494-1.79.005-2.079a3.955,3.955,0,0,0,1.582-1.765c.543.15,1.215-.049,1.215-.793a2.944,2.944,0,0,0-.784-2.006c-.134-3.251-1.242-6.591-4.983-8.751s-4.848-.1-4.981,3c-.45-.1-.784.338-.784,1.1a3.586,3.586,0,0,0,1.217,2.2,17.6,17.6,0,0,0,1.58,3.59c.5.865.517,1.815,0,2.082a4.086,4.086,0,0,1-3.1.134c-1.569-.477-2.737.472-2.737,2.4v3.354a2.264,2.264,0,0,0,1.026,1.768l15.548,8.976c.566.328,1.024.066,1.024-.583v-3.354A7.975,7.975,0,0,0,528.564,236.078Z" transform="translate(-417.528 -146.763)" fill="#fff"/>
      <path id="Path_5847" data-name="Path 5847" d="M537.719,248.774l5.428,3.136v-9.733l-5.428-3.132Zm8.594,4.963,5.428,3.136V239.029l-5.428-3.134Zm8.6-20.989V258.7l5.428,3.132v-25.95Z" transform="translate(-400.949 -135.26)" fill="#fff"/>
      <path id="Path_5848" data-name="Path 5848" d="M505.747,220.094a12.645,12.645,0,0,0-.108-1.54l2.564-.323a23.059,23.059,0,0,0-1.163-3.883l-2.921-.882a20.517,20.517,0,0,0-1.819-3.139l.7-2.948a23.458,23.458,0,0,0-2.8-2.948l-1.574,2.033a12.412,12.412,0,0,0-1.286-.865,9.955,9.955,0,0,0-1.285-.619l-1.572-3.851a7.8,7.8,0,0,0-2.8-.282l.7,3.758a4,4,0,0,0-1.82,1.036l-2.921-2.49a7.641,7.641,0,0,0-1.163,2.539l2.564,3.288a9.736,9.736,0,0,0-.108,1.41,12.634,12.634,0,0,0,.108,1.54l-2.564.323a23.225,23.225,0,0,0,1.163,3.883l2.921.884a20.37,20.37,0,0,0,1.82,3.137l-.7,2.948a23.367,23.367,0,0,0,2.8,2.95l1.572-2.035a12.875,12.875,0,0,0,1.285.867,10.07,10.07,0,0,0,1.286.617l1.574,3.851a7.791,7.791,0,0,0,2.8.282l-.7-3.756a4.024,4.024,0,0,0,1.819-1.038l2.921,2.49a7.591,7.591,0,0,0,1.163-2.539l-2.564-3.286A9.769,9.769,0,0,0,505.747,220.094Zm-8.4-.979a7.441,7.441,0,0,1-3.374-5.823c0-2.138,1.511-3,3.374-1.924a7.429,7.429,0,0,1,3.376,5.822C500.718,219.33,499.209,220.19,497.343,219.115Z" transform="translate(-436.318 -157.302)" fill="#fff"/>
      <g id="Group_3527" data-name="Group 3527" transform="translate(5.364 18.23)">
        <path id="Path_5849" data-name="Path 5849" d="M460.481,185.9l10.779,16.844,10.779-4.4.01.014a4.115,4.115,0,0,0-1.281-1.246l-19.018-10.98a1.617,1.617,0,0,0-1.278-.23Z" transform="translate(-459.638 -185.859)" fill="#fff"/>
        <path id="Path_5850" data-name="Path 5850" d="M482.415,198.379,471.6,204.543l-3.061-5.281-7.718,3.149-.032-.051,7.175-4.091-7.175-12.377a1.353,1.353,0,0,0-.811,1.427V200.2a4.656,4.656,0,0,0,2.113,3.644l19.018,10.98c1.168.674,2.115.135,2.115-1.205v-12.88A4.431,4.431,0,0,0,482.415,198.379Zm-.034,16.479L474.663,202.8l.576-.328,7.175,12.375Z" transform="translate(-459.979 -185.835)" fill="#fff"/>
      </g>
    </g>
    <g id="Group_3530" data-name="Group 3530" transform="translate(300.174 306.196)">
      <g id="Group_3529" data-name="Group 3529">
        <path id="Path_5851" data-name="Path 5851" d="M376.817,255.608v48.255l7.62-4.335V251Z" transform="translate(-247.264 -176.034)" fill="#2672ab"/>
        <path id="Path_5852" data-name="Path 5852" d="M429.766,284.384V332.64l-129.593-74.8V209.318Z" transform="translate(-300.174 -204.81)" fill="#3f92d1"/>
        <path id="Path_5853" data-name="Path 5853" d="M300.174,211.16l129.593,75.066,7.58-4.6-129.659-74.97Z" transform="translate(-300.174 -206.651)" fill="#72b5e8"/>
        <path id="Path_5854" data-name="Path 5854" d="M300.174,209.318l129.593,75.066,7.58-4.6-7.889,3.168Z" transform="translate(-300.174 -204.81)" fill="#fff" opacity="0.7"/>
      </g>
      <path id="Path_5855" data-name="Path 5855" d="M346.126,237.628l-23.69-13.678c-1.455-.838-2.632-.167-2.632,1.5V241.5a5.8,5.8,0,0,0,2.632,4.539l14.806,8.55,7.4,12.769v-8.5l1.481.855c1.454.84,2.632.169,2.632-1.5V242.168A5.8,5.8,0,0,0,346.126,237.628Zm-16.7,3c-.771.439-2.022-.282-2.792-1.613s-.771-2.764,0-3.2,2.022.282,2.792,1.613S330.2,240.19,329.426,240.631Zm6.417,3.7c-.771.44-2.022-.282-2.792-1.613s-.771-2.762,0-3.2,2.022.281,2.792,1.611S336.613,243.9,335.842,244.335Zm6.417,3.705c-.771.438-2.022-.282-2.792-1.611s-.771-2.765,0-3.2,2.022.282,2.792,1.611S343.029,247.6,342.259,248.04Zm-24.429-7.683V227.332l-9.05-5.225c-1.454-.84-2.632-.169-2.632,1.5v16.046a5.8,5.8,0,0,0,2.632,4.54l1.481.855v8.5l7.4-4.222,14.807,8.55c1.454.838,2.632.167,2.632-1.5v-.756L322.436,248.3A10.163,10.163,0,0,1,317.83,240.357Z" transform="translate(-296.05 -196.232)" fill="#fff"/>
      <path id="Path_5856" data-name="Path 5856" d="M334.548,235.916v4.006l61.91,35.746v-4.006Z" transform="translate(-276.444 -186.449)" fill="#fff"/>
      <path id="Path_5857" data-name="Path 5857" d="M376.879,270.229l-42.331-24.462v4.006l42.331,24.462Z" transform="translate(-276.444 -179.649)" fill="#fff"/>
      <path id="Path_5858" data-name="Path 5858" d="M334.548,244.847l61.91,35.746v-4.006l-61.91-35.746Z" transform="translate(-276.444 -183.049)" fill="#fff"/>
    </g>
    <g id="Group_3534" data-name="Group 3534" transform="translate(374.349 276.439)">
      <path id="Path_5859" data-name="Path 5859" d="M470.12,332.9l-40.243-22.593c3.474-2.549,5.512-5.581,5.512-8.844,0-9-15.363-16.3-34.315-16.3s-34.315,7.3-34.315,16.3,15.363,16.3,34.315,16.3a69.034,69.034,0,0,0,11.259-.916l43.335,24.337c2.8,1.616,7.686,1.415,10.916-.453C470.164,338.915,474.414,335.436,470.12,332.9Z" transform="translate(-328.384 -122.694)" fill="#92b4d1" opacity="0.2"/>
      <g id="Group_3533" data-name="Group 3533">
        <g id="Group_3531" data-name="Group 3531" transform="translate(87.532 133.283)">
          <path id="Path_5860" data-name="Path 5860" d="M434.9,312.752a9.211,9.211,0,1,1-12.478-3.737A9.211,9.211,0,0,1,434.9,312.752Z" transform="translate(-380.833 -240.274)" fill="#001a46"/>
          <path id="Path_5861" data-name="Path 5861" d="M418.727,276.511l-19.943,10.745,29.748,54.877,0,0c.013.027.024.054.039.081,1.729,3.207,7.593,3.4,13.1.434s8.57-7.973,6.842-11.18c-.014-.027-.032-.052-.046-.078l0,0Z" transform="translate(-393.808 -261.951)" fill="#084c94"/>
          <path id="Path_5862" data-name="Path 5862" d="M418.936,277.57c1.728,3.208-1.335,8.213-6.842,11.18s-11.373,2.772-13.1-.433,1.335-8.213,6.842-11.18S417.207,274.365,418.936,277.57Z" transform="translate(-393.996 -262.971)" fill="#2672ab"/>
          <path id="Path_5863" data-name="Path 5863" d="M407.7,267.9,395.84,274.29l8.433,15.652h0c.008.015.015.032.025.047,1.026,1.908,4.517,2.023,7.791.259s5.1-4.741,4.069-6.651l-.027-.046h0Z" transform="translate(-395.84 -267.897)" fill="#001a46"/>
        </g>
        <g id="Group_3532" data-name="Group 3532" transform="translate(13.168)">
          <path id="Path_5864" data-name="Path 5864" d="M404.586,196.515c-14.768-8.526-28.161-9.5-37.96-4.2-.276.149-14.339,8-14.78,8.675,9.971-7.522,24.733-7.409,41.209,2.1,30.03,17.338,54.376,59.331,54.376,93.793,0,17.583-6.339,29.8-16.538,35.257a12.318,12.318,0,0,0,2.654-1.165c.291-.164,9.88-5.975,10.162-6.148,9.444-5.771,15.254-17.694,15.254-34.528C458.962,255.846,434.616,213.854,404.586,196.515Z" transform="translate(-351.846 -189.047)" fill="#72b5e8"/>
        </g>
        <path id="Path_5865" data-name="Path 5865" d="M398.432,200.409c-30.032-17.339-54.376-3.458-54.376,31S368.4,307.865,398.432,325.2s54.376,3.457,54.376-31S428.463,217.747,398.432,200.409Zm-.816,116.565c-25.485-14.713-46.144-50.348-46.144-79.593s20.659-41.021,46.144-26.307,46.144,50.348,46.144,79.591S423.1,331.687,397.616,316.974Z" transform="translate(-344.056 -186.359)" fill="#d1ebff"/>
        <path id="Path_5866" data-name="Path 5866" d="M404.139,306.469C378.653,291.756,358,256.122,358,226.878c0-11.929,3.44-20.948,9.239-26.452-11.395,3.061-18.791,14.3-18.791,31.788,0,29.244,20.659,64.88,46.144,79.593,15.09,8.712,28.484,8.134,36.9.144C423.837,314.01,414.379,312.382,404.139,306.469Z" transform="translate(-341.028 -181.192)" fill="#72b5e8"/>
        <path id="Path_5867" data-name="Path 5867" d="M392.963,199.632c-14.4-8.311-27.476-9.432-37.2-4.567,9.067-2.537,22.407-1.165,34.594,5.872,30.03,17.338,54.376,59.331,54.376,93.793,0,17.941-8.7,30.808-19.261,36.092,13.276-3.714,21.871-16.922,21.871-37.4C447.339,258.965,422.994,216.972,392.963,199.632Z" transform="translate(-335.977 -186.887)" fill="#fff" style="mix-blend-mode: screen;isolation: isolate"/>
      </g>
    </g>
  </g>
</svg>
